# xmcd
#
# Track frame offsets:
#	150
#	11486
#	29917
#	42707
#	56731
#	73439
#	83884
#	99122
#	117065
#	132560
#	153806
#	162772
#
# Disc length: 2298 seconds
#
# Revision: 0
# Processed by: cddbd v1.5.2PL0 Copyright (c) Steve Scherf et al.
# Submitted via: dBpowerAMP V4.0
#
DISCID=a208f80c
DTITLE=3 Boxes - Strings Attached
DYEAR=1900
DGENRE=Instrumental
TTITLE0=Wranglin'
TTITLE1=The Last Goodbye
TTITLE2=No Parrots In Tescos
TTITLE3=Rain Stopped Play
TTITLE4=All The Pretty Little Horses
TTITLE5=Fat Englishmen With Tattoos
TTITLE6=I Have Lately Learned To Swim
TTITLE7=Snakebite
TTITLE8=Picnic
TTITLE9=The Car and The Great Salt Lake
TTITLE10=Horney Pipey
TTITLE11=Tick Tock
EXTD=Not really Country - three guitarists playing instrumentals, but Country is the closeet available genre
EXTT0=
EXTT1=
EXTT2=
EXTT3=
EXTT4=
EXTT5=
EXTT6=
EXTT7=
EXTT8=
EXTT9=
EXTT10=
EXTT11=
PLAYORDER=
